<svg xmlns="http://www.w3.org/2000/svg" shape-rendering="geometricPrecision" text-rendering="geometricPrecision" image-rendering="optimizeQuality" fill-rule="evenodd" clip-rule="evenodd" viewBox="0 0 438 512.038"><path fill="#FBD433" d="M162.334 7.514C279.138-23.78 399.193 45.535 430.491 162.338c11.751 43.861 9.304 88.175-4.507 128.08-17.797 51.419-8.862 75.844-8.862 137.031-2.761 26.193-40.404 27.922-43.71 0v-53.163a218.246 218.246 0 01-19.401 17.15c-.696 17.627-4.978 51.622-31.593 39.308-5.101-2.358-10.085-6.445-14.339-11.705a219.703 219.703 0 01-10.577 4.37v46.116c-.498 30.472-35.695 27.05-36.44 0v-35.657a218.921 218.921 0 01-31.854 3.878v50.88c.104 26.321-43.916 35.285-47.187 1.207V434.85l-.414-.074c-21.871 33.77-56.251 20.595-56.251-17.87a220.153 220.153 0 01-32.659-19.059v37.662c-2.698 31.979-42.009 27.928-37.64-3.664V365.12c-51.731 50.574-38.749-56.612-47.543-89.446C-23.78 158.871 45.532 38.811 162.334 7.514z"/><path fill="#40270E" d="M283.274 121.62c17.516 0 31.716 17.978 31.716 40.153 0 22.176-14.2 40.154-31.716 40.154-17.517 0-31.716-17.978-31.716-40.154 0-22.175 14.199-40.153 31.716-40.153zM140.259 228.824c-7.003-4.478-15.548 1.883-9.272 10.807 52.139 63.42 115.796 73.422 184.874 29.052 8.712-6.569 2.529-15.244-5.511-13.129-60.457 24.333-120.011 14.975-170.091-26.73zm9.356-142.362c17.517 0 31.717 17.977 31.717 40.153s-14.2 40.153-31.717 40.153c-17.516 0-31.714-17.977-31.714-40.153s14.198-40.153 31.714-40.153z"/><path fill="#89611B" d="M142.138 101.791c6.123 0 11.087 5.241 11.087 11.707 0 6.466-4.964 11.709-11.087 11.709-6.124 0-11.089-5.243-11.089-11.709 0-6.466 4.965-11.707 11.089-11.707zm133.657 35.158c6.124 0 11.089 5.241 11.089 11.709 0 6.465-4.965 11.707-11.089 11.707-6.122 0-11.087-5.242-11.087-11.707 0-6.468 4.965-11.709 11.087-11.709z"/></svg>