<?xml version="1.0" encoding="utf-8"?><svg version="1.1" id="Layer_1" xmlns="http://www.w3.org/2000/svg" xmlns:xlink="http://www.w3.org/1999/xlink" x="0px" y="0px" viewBox="0 0 122.88 122.88" style="enable-background:new 0 0 122.88 122.88" xml:space="preserve"><style type="text/css">.st0{fill-rule:evenodd;clip-rule:evenodd;fill:#FBD433;} .st1{fill-rule:evenodd;clip-rule:evenodd;fill:#141518;} .st2{fill-rule:evenodd;clip-rule:evenodd;fill:#FF0000;}</style><g><path class="st0" d="M45.54,2.11c32.77-8.78,66.45,10.67,75.23,43.43c8.78,32.77-10.67,66.45-43.43,75.23 c-32.77,8.78-66.45-10.67-75.23-43.43C-6.67,44.57,12.77,10.89,45.54,2.11L45.54,2.11z"/><path class="st1" d="M28.61,66.61c16.69,19.06,51.02,19.23,65.78-0.04l2.41,2.39c-1.38,2.34-2.9,4.48-4.52,6.44 c1.47,1.44,2.64,3.2,3.39,5.16c0.82,2.12,1.15,4.45,0.88,6.84c-0.45,3.97-2.47,7.38-5.37,9.68c-2.9,2.3-6.68,3.5-10.65,3.05 c-3.54-0.4-6.63-2.06-8.9-4.47c-1.58-1.69-2.76-3.75-3.39-6.01c-14.88,2.49-31.05-4.15-42.14-20.55L28.61,66.61L28.61,66.61z M41.89,27.86c4.3,0,7.78,4.91,7.78,10.97c0,6.06-3.48,10.97-7.78,10.97c-4.3,0-7.78-4.91-7.78-10.97 C34.11,32.77,37.59,27.86,41.89,27.86L41.89,27.86z M80.99,27.86c4.3,0,7.78,4.91,7.78,10.97c0,6.06-3.48,10.97-7.78,10.97 c-4.3,0-7.78-4.91-7.78-10.97C73.21,32.77,76.69,27.86,80.99,27.86L80.99,27.86z"/><path class="st2" d="M89.05,77.92c2.48,2.18,3.89,5.5,3.48,9.03c-0.65,5.73-5.83,9.85-11.56,9.19c-5.15-0.59-9-4.83-9.25-9.84 C77.77,84.78,83.64,81.99,89.05,77.92L89.05,77.92z"/></g></svg>